# xmcd
#
# Track frame offsets: 
#        150
#        11500
#        23807
#        36025
#        48749
#        60654
#        82058
#        94266
#        118100
#        130939
#        144592
#        155495
#        166085
#        177032
#        187690
#        204853
#        221152
#        232740
#        246108
#        264252
#
# Disc length: 3880 seconds
#
# Revision: 0
# Processed by: cddbd v1.4PL0 Copyright (c) Steve Scherf et al.
# Submitted via: ExactAudioCopy v0.90b4
#
DISCID=060f2614
DTITLE=Various Artist - The Best of the Blues
DYEAR=2001
DGENRE=
TTITLE0=John Lee Hooker - Boom Boom
TTITLE1=Jimmy Reed - Honest I Do
TTITLE2=Lightinin Slim - Rooster Blues
TTITLE3=Muddy Waters - Baby Please Don't Go
TTITLE4=Jimmy Reed - Hush, Hush
TTITLE5=Lightnin Hopkins - Shake It Baby
TTITLE6=John Lee Hooker  I'm In The Mood
TTITLE7=Howlin Wolf - Dust My Broom
TTITLE8=Memphis Slim - I Am The Blues
TTITLE9=Muddy Waters - Hoochie Coochie Man
TTITLE10=Lightnin Slim - My Babe
TTITLE11=Jimmy Reed - Ain't That Loving You Baby
TTITLE12=Lohn Lee Hooker - No Shoes
TTITLE13=Lightnin Hopkins - Nothin' But The Blues
TTITLE14=Howlin Wolf - All My Life
TTITLE15=Muddy Waters - Corinna, Corinna
TTITLE16=Lightnin Slim - Bad Luck Blues
TTITLE17=Memphis Slim - Every Day I Have The Blues
TTITLE18=John Lee Hooker - House Rent Boogie
TTITLE19=Muddy Waters - Caldonia
EXTD=
EXTT0=
EXTT1=
EXTT2=
EXTT3=
EXTT4=
EXTT5=
EXTT6=
EXTT7=
EXTT8=
EXTT9=
EXTT10=
EXTT11=
EXTT12=
EXTT13=
EXTT14=
EXTT15=
EXTT16=
EXTT17=
EXTT18=
EXTT19=
PLAYORDER=
